# Al Safa 2 Park — Shaded Spine Parametric Canopy 3D Mesh
# Applicant: MOHAMED WASIM
v 42.4540 4.5000 8.5124
v 42.4540 0.0000 8.5124
v 100.0714 4.5000 3.6911
v 100.0714 0.0000 3.6911
v 78.1994 4.5000 11.6264
v 78.1994 0.0000 11.6264
v 64.8658 4.5000 2.8946
v 64.8658 0.0000 2.8946
v 20.6019 4.5000 13.8426
v 20.6019 0.0000 13.8426
v 20.5995 4.5000 11.2669
v 20.5995 0.0000 11.2669
v 10.8084 4.5000 4.3846
v 10.8084 0.0000 4.3846
v 91.6176 4.5000 2.0663
v 91.6176 0.0000 2.0663
v 65.1115 4.5000 11.7855
v 65.1115 0.0000 11.7855
v 75.8073 4.5000 10.4823
v 75.8073 0.0000 10.4823
v 7.0584 4.5000 10.7481
v 7.0584 0.0000 10.7481
v 101.9910 4.5000 11.2552
v 101.9910 0.0000 11.2552
v 88.2443 4.5000 2.8885
v 88.2443 0.0000 2.8885
v 26.2339 4.5000 6.3016
v 26.2339 0.0000 6.3016
v 23.1825 4.5000 3.3904
v 23.1825 0.0000 3.3904
v 23.3405 4.5000 12.3572
v 23.3405 0.0000 12.3572
v 35.4242 4.5000 9.4796
v 35.4242 0.0000 9.4796
v 57.4756 4.5000 5.9708
v 57.4756 0.0000 5.9708
v 48.1945 4.5000 2.7627
v 48.1945 0.0000 2.7627
v 34.1229 4.5000 5.7318
v 34.1229 0.0000 5.7318
v 66.1853 4.5000 5.9022
v 66.1853 0.0000 5.9022
v 18.9494 4.5000 10.7553
v 18.9494 0.0000 10.7553
v 34.2145 4.5000 9.6507
v 34.2145 0.0000 9.6507
v 41.6362 4.5000 12.6466
v 41.6362 0.0000 12.6466
v 50.6070 4.5000 7.6666
v 50.6070 0.0000 7.6666
v 83.5176 4.5000 3.4351
v 83.5176 0.0000 3.4351
v 24.9674 4.5000 10.5589
v 24.9674 0.0000 10.5589
v 56.4234 4.5000 11.1294
v 56.4234 0.0000 11.1294
v 64.2415 4.5000 8.7353
v 64.2415 0.0000 8.7353
v 9.6450 4.5000 11.2516
v 9.6450 0.0000 11.2516
v 65.7545 4.5000 7.9255
v 65.7545 0.0000 7.9255
v 22.0524 4.5000 8.2728
v 22.0524 0.0000 8.2728
v 11.5052 4.5000 7.1305
v 11.5052 0.0000 7.1305
v 99.8886 4.5000 2.3050
v 99.8886 0.0000 2.3050
v 101.5632 4.5000 3.2947
v 101.5632 0.0000 3.2947
v 85.8397 4.5000 2.3772
v 85.8397 0.0000 2.3772
v 35.4614 4.5000 9.6369
v 35.4614 0.0000 9.6369
v 14.7672 4.5000 5.7723
v 14.7672 0.0000 5.7723
v 73.4233 4.5000 8.1028
v 73.4233 0.0000 8.1028
v 49.0152 4.5000 12.8908
v 49.0152 0.0000 12.8908
v 17.2038 4.5000 4.9915
v 17.2038 0.0000 4.9915
v 54.5177 4.5000 6.9246
v 54.5177 0.0000 6.9246
v 8.4389 4.5000 11.0666
v 8.4389 0.0000 11.0666
v 95.9320 4.5000 4.7456
v 95.9320 0.0000 4.7456
v 30.8780 4.5000 2.9238
v 30.8780 0.0000 2.9238
v 71.2522 4.5000 5.4770
v 71.2522 0.0000 5.4770
v 36.1711 4.5000 3.9347
v 36.1711 0.0000 3.9347
v 57.0068 4.5000 13.1564
v 57.0068 0.0000 13.1564
v 59.6710 4.5000 11.6974
v 59.6710 0.0000 11.6974
v 23.4854 4.5000 9.6008
v 23.4854 0.0000 9.6008
v 101.9585 4.5000 12.4575
v 101.9585 0.0000 12.4575
v 82.5133 4.5000 11.6441
v 82.5133 0.0000 11.6441
v 98.9499 4.5000 4.2388
v 98.9499 0.0000 4.2388
v 94.4827 4.5000 12.7107
v 94.4827 0.0000 12.7107
v 64.7900 4.5000 8.4721
v 64.7900 0.0000 8.4721
v 97.1874 4.5000 11.6893
v 97.1874 0.0000 11.6893
v 13.8493 4.5000 12.7531
v 13.8493 0.0000 12.7531
v 24.5983 4.5000 5.8160
v 24.5983 0.0000 5.8160
v 9.5227 4.5000 3.3206
v 9.5227 0.0000 3.3206
v 37.5330 4.5000 4.7352
v 37.5330 0.0000 4.7352
v 43.8677 4.5000 7.1253
v 43.8677 0.0000 7.1253
v 32.1349 4.5000 11.8162
v 32.1349 0.0000 11.8162
v 87.8738 4.5000 12.3288
v 87.8738 0.0000 12.3288
v 40.6753 4.5000 2.0834
v 40.6753 0.0000 2.0834
v 33.0935 4.5000 8.1290
v 33.0935 0.0000 8.1290
l 1 2
l 3 4
l 5 6
l 7 8
l 9 10
l 11 12
l 13 14
l 15 16
l 17 18
l 19 20
l 21 22
l 23 24
l 25 26
l 27 28
l 29 30
l 31 32
l 33 34
l 35 36
l 37 38
l 39 40
l 41 42
l 43 44
l 45 46
l 47 48
l 49 50
l 51 52
l 53 54
l 55 56
l 57 58
l 59 60
l 61 62
l 63 64
l 65 66
l 67 68
l 69 70
l 71 72
l 73 74
l 75 76
l 77 78
l 79 80
l 81 82
l 83 84
l 85 86
l 87 88
l 89 90
l 91 92
l 93 94
l 95 96
l 97 98
l 99 100
l 101 102
l 103 104
l 105 106
l 107 108
l 109 110
l 111 112
l 113 114
l 115 116
l 117 118
l 119 120
l 121 122
l 123 124
l 125 126
l 127 128
l 129 130
